<svg width="24" height="25" viewBox="0 0 24 25" fill="none" xmlns="http://www.w3.org/2000/svg">
<path d="M17 4.34403C17 4.06788 16.7761 3.84403 16.5 3.84403H14C11.3793 3.71348 9.14528 5.72412 9 8.34403V11.044H6.5C6.22386 11.044 6 11.2679 6 11.544V14.144C6 14.4202 6.22386 14.644 6.5 14.644H9V21.344C9 21.6202 9.22386 21.844 9.5 21.844H12.5C12.7761 21.844 13 21.6202 13 21.344V14.644H15.62C15.8487 14.6473 16.0505 14.4949 16.11 14.274L16.83 11.674C16.8703 11.5243 16.8389 11.3643 16.7449 11.241C16.6509 11.1177 16.5051 11.0449 16.35 11.044H13V8.34403C13.0515 7.83112 13.4845 7.44144 14 7.44403H16.5C16.7761 7.44403 17 7.22017 17 6.94403V4.34403Z" fill="#1877F2"/>
</svg>
