<svg width="24" height="25" viewBox="0 0 24 25" fill="none" xmlns="http://www.w3.org/2000/svg">
<path d="M15.15 9.24405C13.602 9.23874 12.1155 9.84925 11.0182 10.941C9.92078 12.0328 9.30263 13.5161 9.29999 15.0641V20.9441C9.29999 21.1827 9.39481 21.4117 9.56359 21.5804C9.73237 21.7492 9.96129 21.8441 10.2 21.8441H12.3C12.797 21.8441 13.2 21.4411 13.2 20.9441V15.0641C13.1996 14.5127 13.4338 13.9873 13.8441 13.619C14.2543 13.2507 14.8019 13.0744 15.35 13.1341C16.3559 13.2608 17.1079 14.1202 17.1 15.1341V20.9441C17.1 21.4411 17.5029 21.8441 18 21.8441H20.1C20.597 21.8441 21 21.4411 21 20.9441V15.0641C20.9973 13.5161 20.3792 12.0328 19.2818 10.941C18.1844 9.84925 16.6979 9.23874 15.15 9.24405Z" fill="#007EBB"/>
<rect x="3" y="10.144" width="4.5" height="11.7" rx="0.9" fill="#007EBB"/>
<circle cx="5.25" cy="6.09399" r="2.25" fill="#007EBB"/>
</svg>
