<svg width="72" height="72" viewBox="0 0 72 72" fill="none" xmlns="http://www.w3.org/2000/svg">
<g clip-path="url(#clip0_1_1817)">
<path d="M66.3013 18.7476C57.102 11.6751 48.1794 17.4391 38.2269 15.4011C28.2026 13.3484 24.2087 6.51364 12.7912 9.66856C2.67722 12.4632 -3.45966 23.6679 2.10037 33.0486C3.6848 35.7217 6.38395 37.7384 7.48701 40.7294C9.26634 45.5544 6.55791 49.2587 7.08623 54.0005C9.28167 73.7022 39.3701 66.0709 50.4413 59.9412C67.8043 50.328 79.5504 28.9338 66.3013 18.7476Z" fill="url(#paint0_linear_1_1817)" fill-opacity="0.12"/>
<path opacity="0.24" d="M57.8211 11.5842C57.299 11.5842 56.7768 11.3853 56.3793 10.9879C55.5843 10.193 55.5843 8.89935 56.3793 8.10426C57.1743 7.30916 58.468 7.30916 59.263 8.10426C60.0579 8.89935 60.0579 10.1928 59.263 10.9879C58.8656 11.3853 58.3434 11.5842 57.8211 11.5842ZM57.8213 8.91355C57.6591 8.91355 57.4971 8.97515 57.3738 9.09862C57.1271 9.34527 57.1271 9.74676 57.3738 9.99355C57.6205 10.2402 58.0219 10.2404 58.2687 9.99355C58.5154 9.7469 58.5154 9.34541 58.2687 9.09862C58.1453 8.97515 57.9833 8.91355 57.8213 8.91355V8.91355Z" fill="#3366FF"/>
<path opacity="0.48" d="M61.3575 18.4595C60.8354 18.4596 60.3133 18.2608 59.9157 17.8632C59.5305 17.4781 59.3185 16.966 59.3185 16.4214C59.3185 15.8768 59.5305 15.3647 59.9157 14.9796C60.7105 14.1846 62.0041 14.1845 62.7992 14.9796C63.1844 15.3647 63.3965 15.8768 63.3965 16.4214C63.3965 16.9662 63.1844 17.4782 62.7991 17.8632C62.402 18.2606 61.8797 18.4595 61.3575 18.4595V18.4595ZM61.3575 15.7889C61.1955 15.7889 61.0334 15.8505 60.9101 15.9739C60.7904 16.0935 60.7247 16.2524 60.7247 16.4214C60.7247 16.5904 60.7905 16.7493 60.9101 16.8689C61.1569 17.1157 61.5584 17.1157 61.805 16.8689C61.9247 16.7493 61.9904 16.5904 61.9904 16.4214C61.9904 16.2524 61.9245 16.0936 61.805 15.9739C61.6817 15.8505 61.5197 15.7889 61.3575 15.7889V15.7889Z" fill="#3366FF"/>
<path opacity="0.24" d="M14.8184 33.2943C14.2963 33.2943 13.774 33.0955 13.3766 32.6981C12.5817 31.903 12.5817 30.6094 13.3766 29.8144C14.1716 29.0196 15.4653 29.0195 16.2603 29.8144C17.0552 30.6095 17.0552 31.903 16.2603 32.6981C15.8629 33.0955 15.3406 33.2943 14.8184 33.2943ZM14.8184 30.6237C14.6564 30.6237 14.4943 30.6853 14.371 30.8088C14.1242 31.0554 14.1242 31.4569 14.371 31.7037C14.6176 31.9505 15.0193 31.9504 15.2659 31.7037C15.5127 31.4571 15.5127 31.0556 15.2659 30.8088C15.1426 30.6853 14.9806 30.6237 14.8184 30.6237Z" fill="#3366FF"/>
<path opacity="0.48" d="M13.9119 39.6143C13.7319 39.6143 13.5521 39.5456 13.4147 39.4084L12.576 38.5697L11.7373 39.4084C11.4627 39.6829 11.0176 39.6829 10.743 39.4084C10.4683 39.1337 10.4683 38.6885 10.743 38.414L12.0789 37.0781C12.3535 36.8036 12.7986 36.8036 13.0733 37.0781L14.4092 38.414C14.6838 38.6887 14.6838 39.1339 14.4092 39.4084C14.2718 39.5455 14.0919 39.6143 13.9119 39.6143Z" fill="#3366FF"/>
<path opacity="0.48" d="M60.0216 59.9767C59.8416 59.9767 59.6617 59.908 59.5243 59.7708L58.6856 58.9321L57.8469 59.7708C57.5723 60.0453 57.1272 60.0453 56.8526 59.7708C56.5779 59.4961 56.5779 59.0509 56.8526 58.7764L58.1885 57.4405C58.4632 57.166 58.9082 57.166 59.1829 57.4405L60.5188 58.7764C60.7935 59.0511 60.7935 59.4963 60.5188 59.7708C60.3814 59.9079 60.2016 59.9767 60.0216 59.9767Z" fill="#3366FF"/>
<path d="M54.0004 39.0462L48.7275 33.3014C48.34 32.8788 47.7928 32.6383 47.2194 32.6383H40.6732L40.673 48.3671H43.177C43.177 46.3889 44.7807 44.7851 46.759 44.7851C48.7373 44.7851 50.3411 46.3889 50.3411 48.3671H51.9531C52.496 48.3672 53.0168 48.1516 53.4007 47.7677C53.7846 47.3837 54.0003 46.863 54.0002 46.32L54.0004 39.0462Z" fill="#3366FF"/>
<circle cx="46.7587" cy="48.3672" r="3.58202" fill="#1939B7"/>
<path fill-rule="evenodd" clip-rule="evenodd" d="M40.6724 39.0462V48.3672H29.7705C29.7705 46.3887 28.1665 44.7848 26.188 44.7848C24.2095 44.7848 22.6056 46.3887 22.6056 48.3672H20.0471C19.5042 48.3673 18.9834 48.1516 18.5995 47.7677C18.2156 47.3838 17.9999 46.863 18 46.3201V29.229C17.9999 28.686 18.2156 28.1653 18.5995 27.7814C18.9834 27.3974 19.5042 27.1818 20.0471 27.1819H22.2677C22.3954 30.7912 25.3583 33.6512 28.9699 33.6512C32.5814 33.6512 35.5444 30.7912 35.672 27.1819H38.6253C39.7559 27.182 40.6724 28.0984 40.6724 29.229V39.0462Z" fill="#84A9FF"/>
<path fill-rule="evenodd" clip-rule="evenodd" d="M35.6766 26.9563C35.6766 27.0318 35.6757 27.1072 35.6724 27.1818C35.5447 30.7911 32.5818 33.6511 28.9703 33.6511C25.3587 33.6511 22.3958 30.7911 22.2681 27.1818C22.2648 27.1072 22.2639 27.0318 22.2639 26.9563C22.2639 23.2525 25.2664 20.25 28.9703 20.25C32.6741 20.25 35.6766 23.2525 35.6766 26.9563V26.9563Z" fill="#3366FF" stroke="#3366FF"/>
<path fill-rule="evenodd" clip-rule="evenodd" d="M26.1874 44.7852C28.1657 44.7852 29.7694 46.3889 29.7694 48.3672C29.7694 50.3455 28.1657 51.9492 26.1874 51.9492C24.2091 51.9492 22.6054 50.3455 22.6054 48.3672C22.6055 46.3889 24.2092 44.7852 26.1874 44.7852Z" fill="#1939B7"/>
<path fill-rule="evenodd" clip-rule="evenodd" d="M31.2084 29.6388C31.0595 29.639 30.9161 29.5823 30.8075 29.4803L28.5692 27.3846C28.4507 27.2737 28.3835 27.1186 28.3835 26.9562V22.6072C28.3835 22.2831 28.6463 22.0204 28.9703 22.0204C29.2944 22.0204 29.5572 22.2831 29.5572 22.6072V26.7022L31.6096 28.624C31.7855 28.7887 31.8428 29.044 31.7543 29.268C31.6658 29.4921 31.4494 29.6392 31.2085 29.6392L31.2084 29.6388Z" fill="#D6E4FF"/>
</g>
<defs>
<linearGradient id="paint0_linear_1_1817" x1="49.3215" y1="76.9518" x2="78.973" y2="14.5362" gradientUnits="userSpaceOnUse">
<stop stop-color="#3366FF"/>
<stop offset="1" stop-color="#3366FF" stop-opacity="0.01"/>
</linearGradient>
<clipPath id="clip0_1_1817">
<rect width="72" height="72" fill="white"/>
</clipPath>
</defs>
</svg>
