<svg width="612" height="30" viewBox="0 0 612 30" fill="none" xmlns="http://www.w3.org/2000/svg">
<path d="M0.5 0H140.5L132.5 12.7358L140.5 25H0.5V0Z" fill="url(#paint0_linear_1_1844)"/>
<path d="M17.0176 8.46875H18.4121L20.7441 14.8906L23.0703 8.46875H24.4707L21.3008 17H20.1816L17.0176 8.46875ZM16.3145 8.46875H17.6797L17.9258 14.3691V17H16.3145V8.46875ZM23.8027 8.46875H25.1738V17H23.5625V14.3691L23.8027 8.46875ZM33.7227 12.5176V12.957C33.7227 13.6016 33.6367 14.1816 33.4648 14.6973C33.293 15.209 33.0488 15.6445 32.7324 16.0039C32.416 16.3633 32.0391 16.6387 31.6016 16.8301C31.1641 17.0215 30.6777 17.1172 30.1426 17.1172C29.6152 17.1172 29.1309 17.0215 28.6895 16.8301C28.252 16.6387 27.873 16.3633 27.5527 16.0039C27.2324 15.6445 26.9844 15.209 26.8086 14.6973C26.6328 14.1816 26.5449 13.6016 26.5449 12.957V12.5176C26.5449 11.8691 26.6328 11.2891 26.8086 10.7773C26.9844 10.2656 27.2305 9.83008 27.5469 9.4707C27.8633 9.10742 28.2402 8.83008 28.6777 8.63867C29.1191 8.44727 29.6035 8.35156 30.1309 8.35156C30.666 8.35156 31.1523 8.44727 31.5898 8.63867C32.0273 8.83008 32.4043 9.10742 32.7207 9.4707C33.041 9.83008 33.2871 10.2656 33.459 10.7773C33.6348 11.2891 33.7227 11.8691 33.7227 12.5176ZM32.0938 12.957V12.5059C32.0938 12.041 32.0508 11.6328 31.9648 11.2812C31.8789 10.9258 31.752 10.627 31.584 10.3848C31.416 10.1426 31.209 9.96094 30.9629 9.83984C30.7168 9.71484 30.4395 9.65234 30.1309 9.65234C29.8184 9.65234 29.541 9.71484 29.2988 9.83984C29.0605 9.96094 28.8574 10.1426 28.6895 10.3848C28.5215 10.627 28.3926 10.9258 28.3027 11.2812C28.2168 11.6328 28.1738 12.041 28.1738 12.5059V12.957C28.1738 13.418 28.2168 13.8262 28.3027 14.1816C28.3926 14.5371 28.5215 14.8379 28.6895 15.084C28.8613 15.3262 29.0684 15.5098 29.3105 15.6348C29.5527 15.7598 29.8301 15.8223 30.1426 15.8223C30.4551 15.8223 30.7324 15.7598 30.9746 15.6348C31.2168 15.5098 31.4199 15.3262 31.584 15.084C31.752 14.8379 31.8789 14.5371 31.9648 14.1816C32.0508 13.8262 32.0938 13.418 32.0938 12.957ZM39.5527 14.7852C39.5527 14.6211 39.5273 14.4746 39.4766 14.3457C39.4297 14.2129 39.3418 14.0938 39.2129 13.9883C39.0879 13.8789 38.9102 13.7734 38.6797 13.6719C38.4531 13.5664 38.1602 13.457 37.8008 13.3438C37.4023 13.2188 37.0312 13.0781 36.6875 12.9219C36.3438 12.7656 36.041 12.584 35.7793 12.377C35.5215 12.1699 35.3203 11.9316 35.1758 11.6621C35.0312 11.3887 34.959 11.0723 34.959 10.7129C34.959 10.3613 35.0332 10.041 35.1816 9.75195C35.334 9.46289 35.5488 9.21484 35.8262 9.00781C36.1035 8.79688 36.4297 8.63477 36.8047 8.52148C37.1836 8.4082 37.6016 8.35156 38.0586 8.35156C38.6914 8.35156 39.2383 8.4668 39.6992 8.69727C40.1641 8.92773 40.5234 9.24023 40.7773 9.63477C41.0312 10.0293 41.1582 10.4727 41.1582 10.9648H39.5527C39.5527 10.6992 39.4961 10.4648 39.3828 10.2617C39.2734 10.0586 39.1055 9.89844 38.8789 9.78125C38.6562 9.66406 38.375 9.60547 38.0352 9.60547C37.707 9.60547 37.4336 9.6543 37.2148 9.75195C37 9.84961 36.8379 9.98242 36.7285 10.1504C36.623 10.3184 36.5703 10.5059 36.5703 10.7129C36.5703 10.8691 36.6074 11.0098 36.6816 11.1348C36.7559 11.2559 36.8672 11.3711 37.0156 11.4805C37.1641 11.5859 37.3477 11.6855 37.5664 11.7793C37.7891 11.8691 38.0469 11.959 38.3398 12.0488C38.8086 12.1895 39.2188 12.3457 39.5703 12.5176C39.9258 12.6895 40.2207 12.8848 40.4551 13.1035C40.6934 13.3223 40.8711 13.5684 40.9883 13.8418C41.1094 14.1152 41.1699 14.4258 41.1699 14.7734C41.1699 15.1406 41.0977 15.4688 40.9531 15.7578C40.8086 16.0469 40.6016 16.293 40.332 16.4961C40.0625 16.6992 39.7383 16.8535 39.3594 16.959C38.9844 17.0645 38.5645 17.1172 38.0996 17.1172C37.6855 17.1172 37.2754 17.0625 36.8691 16.9531C36.4668 16.8398 36.1016 16.6719 35.7734 16.4492C35.4453 16.2227 35.1836 15.9375 34.9883 15.5938C34.793 15.2461 34.6953 14.8398 34.6953 14.375H36.3125C36.3125 14.6445 36.3555 14.875 36.4414 15.0664C36.5312 15.2539 36.6562 15.4082 36.8164 15.5293C36.9805 15.6465 37.1719 15.7324 37.3906 15.7871C37.6094 15.8418 37.8457 15.8691 38.0996 15.8691C38.4277 15.8691 38.6973 15.8242 38.9082 15.7344C39.123 15.6406 39.2832 15.5117 39.3887 15.3477C39.498 15.1836 39.5527 14.9961 39.5527 14.7852ZM46.0742 8.46875V17H44.4688V8.46875H46.0742ZM48.7227 8.46875V9.74023H41.8496V8.46875H48.7227ZM55.7715 13.8887H53.5742V12.623H55.7715C56.1309 12.623 56.4219 12.5645 56.6445 12.4473C56.8711 12.3262 57.0371 12.1621 57.1426 11.9551C57.248 11.7441 57.3008 11.5039 57.3008 11.2344C57.3008 10.9727 57.248 10.7285 57.1426 10.502C57.0371 10.2754 56.8711 10.0918 56.6445 9.95117C56.4219 9.81055 56.1309 9.74023 55.7715 9.74023H54.1016V17H52.4902V8.46875H55.7715C56.4355 8.46875 57.002 8.58789 57.4707 8.82617C57.9434 9.06055 58.3027 9.38672 58.5488 9.80469C58.7988 10.2188 58.9238 10.6914 58.9238 11.2227C58.9238 11.7734 58.7988 12.248 58.5488 12.6465C58.3027 13.0449 57.9434 13.3516 57.4707 13.5664C57.002 13.7812 56.4355 13.8887 55.7715 13.8887ZM60.1895 8.46875H63.2891C63.9375 8.46875 64.4941 8.56641 64.959 8.76172C65.4238 8.95703 65.7812 9.24609 66.0312 9.62891C66.2812 10.0117 66.4062 10.4824 66.4062 11.041C66.4062 11.4824 66.3281 11.8652 66.1719 12.1895C66.0156 12.5137 65.7949 12.7852 65.5098 13.0039C65.2285 13.2227 64.8965 13.3945 64.5137 13.5195L64.0098 13.7773H61.2734L61.2617 12.5059H63.3066C63.6387 12.5059 63.9141 12.4473 64.1328 12.3301C64.3516 12.2129 64.5156 12.0508 64.625 11.8438C64.7383 11.6367 64.7949 11.4004 64.7949 11.1348C64.7949 10.8496 64.7402 10.6035 64.6309 10.3965C64.5215 10.1855 64.3555 10.0234 64.1328 9.91016C63.9102 9.79688 63.6289 9.74023 63.2891 9.74023H61.8008V17H60.1895V8.46875ZM65.0059 17L63.0312 13.1797L64.7363 13.1738L66.7344 16.918V17H65.0059ZM73.4727 15.7344V17H68.9375V15.7344H73.4727ZM69.4297 8.46875V17H67.8184V8.46875H69.4297ZM72.8809 11.9902V13.2266H68.9375V11.9902H72.8809ZM73.4551 8.46875V9.74023H68.9375V8.46875H73.4551ZM76.2031 8.46875V17H74.5918V8.46875H76.2031ZM79.6426 12.1543V13.4258H75.7812V12.1543H79.6426ZM80.0938 8.46875V9.74023H75.7812V8.46875H80.0938ZM82.8008 8.46875V17H81.1895V8.46875H82.8008ZM86.2402 12.1543V13.4258H82.3789V12.1543H86.2402ZM86.6914 8.46875V9.74023H82.3789V8.46875H86.6914ZM93.4414 15.7344V17H88.9062V15.7344H93.4414ZM89.3984 8.46875V17H87.7871V8.46875H89.3984ZM92.8496 11.9902V13.2266H88.9062V11.9902H92.8496ZM93.4238 8.46875V9.74023H88.9062V8.46875H93.4238ZM94.5605 8.46875H97.6602C98.3086 8.46875 98.8652 8.56641 99.3301 8.76172C99.7949 8.95703 100.152 9.24609 100.402 9.62891C100.652 10.0117 100.777 10.4824 100.777 11.041C100.777 11.4824 100.699 11.8652 100.543 12.1895C100.387 12.5137 100.166 12.7852 99.8809 13.0039C99.5996 13.2227 99.2676 13.3945 98.8848 13.5195L98.3809 13.7773H95.6445L95.6328 12.5059H97.6777C98.0098 12.5059 98.2852 12.4473 98.5039 12.3301C98.7227 12.2129 98.8867 12.0508 98.9961 11.8438C99.1094 11.6367 99.166 11.4004 99.166 11.1348C99.166 10.8496 99.1113 10.6035 99.002 10.3965C98.8926 10.1855 98.7266 10.0234 98.5039 9.91016C98.2812 9.79688 98 9.74023 97.6602 9.74023H96.1719V17H94.5605V8.46875ZM99.377 17L97.4023 13.1797L99.1074 13.1738L101.105 16.918V17H99.377ZM107.844 15.7344V17H103.309V15.7344H107.844ZM103.801 8.46875V17H102.189V8.46875H103.801ZM107.252 11.9902V13.2266H103.309V11.9902H107.252ZM107.826 8.46875V9.74023H103.309V8.46875H107.826ZM111.512 17H109.672L109.684 15.7344H111.512C112.008 15.7344 112.424 15.625 112.76 15.4062C113.096 15.1836 113.35 14.8652 113.521 14.4512C113.693 14.0332 113.779 13.5332 113.779 12.9512V12.5117C113.779 12.0625 113.73 11.666 113.633 11.3223C113.535 10.9785 113.391 10.6895 113.199 10.4551C113.012 10.2207 112.779 10.043 112.502 9.92188C112.225 9.80078 111.906 9.74023 111.547 9.74023H109.637V8.46875H111.547C112.117 8.46875 112.637 8.56445 113.105 8.75586C113.578 8.94727 113.986 9.22266 114.33 9.58203C114.678 9.9375 114.943 10.3633 115.127 10.8594C115.314 11.3555 115.408 11.9102 115.408 12.5234V12.9512C115.408 13.5605 115.314 14.1152 115.127 14.6152C114.943 15.1113 114.678 15.5371 114.33 15.8926C113.986 16.248 113.576 16.5215 113.1 16.7129C112.623 16.9043 112.094 17 111.512 17ZM110.574 8.46875V17H108.963V8.46875H110.574Z" fill="white"/>
<path d="M0.5 25L8.5 30L8.5 25L0.5 25Z" fill="#091A7A"/>
<defs>
<linearGradient id="paint0_linear_1_1844" x1="-69.5" y1="12.5" x2="-60.8473" y2="60.9549" gradientUnits="userSpaceOnUse">
<stop stop-color="#84A9FF"/>
<stop offset="1" stop-color="#1939B7"/>
</linearGradient>
</defs>
</svg>
