<svg width="50" height="50" viewBox="0 0 50 50" fill="none" xmlns="http://www.w3.org/2000/svg">
<g clip-path="url(#clip0_1_1871)">
<path d="M25 4.38599C25 4.38599 13.5603 8.94739 13.5603 27.193C13.5603 34.2632 15.2991 40.307 17.3811 45.0509C17.747 45.8505 18.3368 46.5277 19.0796 47.0011C19.8223 47.4744 20.6865 47.7239 21.5681 47.7193H28.4319C29.3135 47.7239 30.1777 47.4744 30.9204 47.0011C31.6632 46.5277 32.253 45.8505 32.6189 45.0509C34.7238 40.307 36.4397 34.2632 36.4397 27.193C36.4397 8.94739 25 4.38599 25 4.38599ZM28.4319 43.1579H21.5681C19.2801 38.0491 18.1362 32.6895 18.1362 27.193C18.1362 16.6105 22.4833 11.6842 25 9.70002C27.5167 11.6842 31.8638 16.6105 31.8638 27.193C31.8638 32.6895 30.7199 38.0491 28.4319 43.1579ZM43.3036 50L34.4721 46.4649C36.0737 42.9755 37.2176 39.372 37.9269 35.7M15.5279 46.4649L6.69643 50L12.0731 35.7C12.7824 39.372 13.9263 42.9755 15.5279 46.4649ZM25 27.193C22.4833 27.193 20.4241 25.1404 20.4241 22.6316C20.4241 20.1228 22.4833 18.0702 25 18.0702C27.5167 18.0702 29.5759 20.1228 29.5759 22.6316C29.5759 25.1404 27.5167 27.193 25 27.193Z" fill="#3366FF"/>
</g>
<defs>
<clipPath id="clip0_1_1871">
<rect width="50" height="50" fill="white"/>
</clipPath>
</defs>
</svg>
