<svg width="50" height="50" viewBox="0 0 50 50" fill="none" xmlns="http://www.w3.org/2000/svg">
<path d="M27.4167 46.2291L23.9583 38.2291C27.2917 37.0208 30.3542 35.4166 33.1875 33.4999L27.3958 46.2291M11.7708 26.0416L3.77083 22.6041L16.5 16.8124C14.5833 19.6458 12.9792 22.7291 11.7708 26.0416ZM41.6667 8.33328C35.5 7.87494 30.8333 10.0624 25.9375 15.2291C21.0208 20.3749 18.9375 24.6041 17.7083 27.8124L22.2292 32.1874C27 30.3749 31.25 27.6458 34.7917 24.0833C41.6667 17.2291 42.0208 11.2499 41.6667 8.33328ZM22.9167 12.2916C28.3958 6.45828 37.5 2.24994 45.125 4.89578C45.125 4.89578 49.5417 15.2291 37.7292 27.0833C33.1458 31.6041 28.1875 34.3749 23.7292 36.1249C23.2292 36.3124 21.3333 36.9374 19.2917 35.1666L14.8542 30.7291C13.6875 29.5624 13.3125 27.8541 13.875 26.2916C15.625 21.8749 17.5208 18.1041 22.9167 12.2916ZM13.0208 45.8333H10.0833L18.6042 37.2916C19.2292 37.7291 19.9167 38.0416 20.625 38.2291L13.0208 45.8333ZM4.16667 45.8333V42.8958L14.1042 32.9374L17.0833 35.8958L7.10417 45.8333H4.16667ZM4.16667 39.9374V36.9791L11.7708 29.3749C11.9583 30.1041 12.2708 30.7916 12.7083 31.3958L4.16667 39.9374ZM33.3333 12.4999C34.4384 12.4999 35.4982 12.9389 36.2796 13.7203C37.061 14.5017 37.5 15.5615 37.5 16.6666C37.5 18.9791 35.6458 20.8333 33.3333 20.8333C32.2283 20.8333 31.1685 20.3943 30.3871 19.6129C29.6057 18.8315 29.1667 17.7717 29.1667 16.6666C29.1667 15.5615 29.6057 14.5017 30.3871 13.7203C31.1685 12.9389 32.2283 12.4999 33.3333 12.4999Z" fill="#3366FF"/>
</svg>
